<svg width="120" height="120" viewBox="0 0 120 120" fill="none" xmlns="http://www.w3.org/2000/svg">
<circle cx="60" cy="60" r="58.5" stroke="#33BFC7" stroke-width="3"/>
<path d="M32.082 43.7653V30.4479C32.082 29.3977 32.9324 28.5454 33.9845 28.5454C35.0366 28.5454 35.887 29.3977 35.887 30.4479V43.7653C35.887 44.8155 35.0366 45.6678 33.9845 45.6678C32.9324 45.6678 32.082 44.8155 32.082 43.7653ZM39.692 43.7653V30.4479C39.692 29.3977 40.5424 28.5454 41.5945 28.5454H51.1069C52.159 28.5454 53.0094 29.3977 53.0094 30.4479V43.7653C53.0094 44.8155 52.159 45.6678 51.1069 45.6678H41.5945C40.5424 45.6678 39.692 44.8155 39.692 43.7653ZM43.497 41.8629H49.2045V32.3504H43.497V41.8629ZM58.7169 45.6678C59.769 45.6678 60.6194 44.8155 60.6194 43.7653V30.4479C60.6194 29.3977 59.769 28.5454 58.7169 28.5454C57.6648 28.5454 56.8144 29.3977 56.8144 30.4479V43.7653C56.8144 44.8155 57.6648 45.6678 58.7169 45.6678ZM83.4493 45.6678C84.5014 45.6678 85.3518 44.8155 85.3518 43.7653V30.4479C85.3518 29.3977 84.5014 28.5454 83.4493 28.5454C82.3972 28.5454 81.5468 29.3977 81.5468 30.4479V43.7653C81.5468 44.8155 82.3972 45.6678 83.4493 45.6678ZM64.4244 43.7653V30.4479C64.4244 29.3977 65.2748 28.5454 66.3269 28.5454H75.8393C76.8914 28.5454 77.7418 29.3977 77.7418 30.4479V43.7653C77.7418 44.8155 76.8914 45.6678 75.8393 45.6678H66.3269C65.2748 45.6678 64.4244 44.8155 64.4244 43.7653ZM68.2294 41.8629H73.9369V32.3504H68.2294V41.8629ZM33.9845 70.4002C32.9324 70.4002 32.082 71.2506 32.082 72.3027V85.6202C32.082 86.6722 32.9324 87.5227 33.9845 87.5227C35.0366 87.5227 35.887 86.6722 35.887 85.6202V72.3027C35.887 71.2506 35.0366 70.4002 33.9845 70.4002ZM53.0094 72.3027V85.6202C53.0094 86.6722 52.159 87.5227 51.1069 87.5227H41.5945C40.5424 87.5227 39.692 86.6722 39.692 85.6202V72.3027C39.692 71.2506 40.5424 70.4002 41.5945 70.4002H51.1069C52.159 70.4002 53.0094 71.2506 53.0094 72.3027ZM49.2045 74.2052H43.497V83.7177H49.2045V74.2052ZM56.8144 81.8152V85.6202C56.8144 86.6722 57.6648 87.5227 58.7169 87.5227C59.769 87.5227 60.6194 86.6722 60.6194 85.6202V81.8152H56.8144ZM51.1069 49.4728C50.0549 49.4728 49.2045 50.3251 49.2045 51.3753V64.6928C49.2045 65.7448 50.0549 66.5953 51.1069 66.5953C52.159 66.5953 53.0094 65.7448 53.0094 64.6928V51.3753C53.0094 50.3251 52.159 49.4728 51.1069 49.4728ZM32.082 64.6928V51.3753C32.082 50.3251 32.9324 49.4728 33.9845 49.4728H43.497C44.5491 49.4728 45.3995 50.3251 45.3995 51.3753V64.6928C45.3995 65.7448 44.5491 66.5953 43.497 66.5953H33.9845C32.9324 66.5953 32.082 65.7448 32.082 64.6928ZM35.887 62.7903H41.5945V53.2778H35.887V62.7903ZM60.6194 55.1803V51.3753C60.6194 50.3251 59.769 49.4728 58.7169 49.4728C57.6648 49.4728 56.8144 50.3251 56.8144 51.3753V55.1803H60.6194ZM85.3518 53.2778V51.3753C85.3518 50.3251 84.5014 49.4728 83.4493 49.4728C82.3972 49.4728 81.5468 50.3251 81.5468 51.3753V53.2778H85.3518Z" fill="#0058BF"/>
<path d="M66.3269 68.2275C66.3269 65.0808 68.8877 62.52 72.0344 62.52C73.0865 62.52 73.9369 61.6677 73.9369 60.6175C73.9369 59.5674 73.0865 58.715 72.0344 58.715C66.7892 58.715 62.5219 62.9823 62.5219 68.2275C62.5219 69.2796 63.3723 70.13 64.4244 70.13C65.4765 70.13 66.3269 69.2796 66.3269 68.2275ZM92.4044 85.9074C93.1482 86.6512 93.1482 87.8536 92.4044 88.5975C92.0334 88.9685 91.5464 89.1549 91.0593 89.1549C90.5723 89.1549 90.0852 88.9685 89.7142 88.5975L81.3509 80.2341C78.773 82.2413 75.5464 83.4474 72.0344 83.4474C63.6425 83.4474 56.8145 76.6194 56.8145 68.2275C56.8145 59.8356 63.6425 53.0076 72.0344 53.0076C80.4263 53.0076 87.2543 59.8356 87.2543 68.2275C87.2543 71.7395 86.0481 74.9661 84.0429 77.544L92.4044 85.9074ZM83.4493 68.2275C83.4493 61.9322 78.3278 56.8126 72.0344 56.8126C65.7409 56.8126 60.6194 61.9322 60.6194 68.2275C60.6194 74.5209 65.7409 79.6425 72.0344 79.6425C78.3278 79.6425 83.4493 74.5209 83.4493 68.2275Z" fill="#00AFB9"/>
</svg>
