<svg width="120" height="120" viewBox="0 0 120 120" fill="none" xmlns="http://www.w3.org/2000/svg">
<path d="M59.1383 25.6927C50.1945 25.8901 41.6864 29.5945 35.4486 36.0071L35.4729 31.9433C35.4745 31.6651 35.4213 31.3893 35.3164 31.1317C35.2114 30.8742 35.0567 30.6398 34.8612 30.4419C34.6656 30.2441 34.433 30.0868 34.1766 29.9789C33.9202 29.871 33.6451 29.8146 33.367 29.8131H33.354C32.7949 29.8139 32.2586 30.0355 31.8621 30.4298C31.4656 30.8241 31.2408 31.359 31.2368 31.9182L31.1778 41.7659C31.1759 42.0441 31.2288 42.32 31.3336 42.5777C31.4384 42.8354 31.5929 43.07 31.7885 43.2679C31.984 43.4658 32.2166 43.6233 32.473 43.7312C32.7295 43.8391 33.0047 43.8954 33.2829 43.8969L43.1306 43.9567C43.6889 43.9436 44.223 43.726 44.6316 43.3453C44.9295 43.0509 45.1334 42.6748 45.2176 42.2645C45.3017 41.8542 45.2623 41.4282 45.1043 41.0403C44.9463 40.6524 44.6769 40.3201 44.33 40.0853C43.9832 39.8506 43.5745 39.724 43.1557 39.7215L37.7987 39.6891C37.9322 39.5419 38.0624 39.4004 38.1926 39.2637C42.8189 34.3985 48.9388 31.2193 55.5794 30.2316C62.2201 29.2439 69.0003 30.5044 74.8423 33.8126C80.6843 37.1208 85.2529 42.2869 87.8217 48.4897C90.3905 54.6925 90.8121 61.576 89.0196 68.046C88.8746 68.5675 88.9355 69.1247 89.1895 69.6026C89.4435 70.0806 89.8713 70.4428 90.3847 70.6144C90.6024 70.6873 90.8304 70.7247 91.06 70.7252C91.5237 70.7233 91.9741 70.5702 92.3429 70.2891C92.7118 70.008 92.9788 69.6143 93.1036 69.1676C94.5363 63.9981 94.7372 58.5646 93.6902 53.3034C92.6432 48.0421 90.3775 43.0995 87.0749 38.8723C83.7723 34.645 79.5248 31.2507 74.6732 28.9619C69.8215 26.6731 64.5009 25.5534 59.1383 25.6927V25.6927Z" fill="#0058BF"/>
<path d="M86.8893 76.2294L85.6762 76.0984L77.0181 76.1704H77.0051C76.4445 76.1703 75.9067 76.3926 75.5097 76.7884C75.1127 77.1842 74.8888 77.7213 74.8872 78.282C74.8856 78.8426 75.1064 79.381 75.5011 79.7791C75.8959 80.1772 76.4324 80.4025 76.993 80.4056L82.1025 80.4364C82.0086 80.5391 81.9148 80.6394 81.8226 80.7364C77.1614 85.6468 70.9806 88.842 64.2791 89.8057C57.5776 90.7695 50.7469 89.4454 44.8909 86.0475C39.0348 82.6496 34.4955 77.3764 32.0066 71.0801C29.5177 64.7837 29.2245 57.8321 31.1744 51.3485C31.3331 50.8098 31.2716 50.2301 31.0034 49.7366C30.7352 49.2432 30.2822 48.8763 29.7438 48.7165C29.2054 48.5568 28.6255 48.6171 28.1316 48.8843C27.6376 49.1515 27.2698 49.6038 27.109 50.1419C25.5732 55.2662 25.2564 60.6785 26.1839 65.9469C27.1114 71.2154 29.2576 76.1941 32.4511 80.4857C35.6446 84.7774 39.797 88.2632 44.577 90.665C49.357 93.0667 54.6322 94.318 59.9816 94.3188C60.2793 94.3188 60.5779 94.315 60.8777 94.3075C69.8886 94.108 78.4541 90.3498 84.7024 83.8541L84.6766 88.1831C84.6738 88.7446 84.8939 89.2842 85.2886 89.6835C85.6832 90.0829 86.2202 90.3094 86.7817 90.3133H86.7946C87.3536 90.3125 87.8898 90.091 88.2863 89.6969C88.6828 89.3028 88.9076 88.7681 88.9118 88.209L88.9717 78.3597C88.9739 78.0813 88.9209 77.8053 88.8159 77.5475C88.7108 77.2897 88.5557 77.0554 88.3595 76.8579C87.9689 76.4665 87.4421 76.2413 86.8893 76.2294Z" fill="#00AFB9"/>
<g clip-path="url(#clip0_3413_25668)">
<path d="M60 57.9684C68.5755 57.9684 75.5273 55.6944 75.5273 52.8892C75.5273 50.0841 68.5755 47.8101 60 47.8101C51.4245 47.8101 44.4727 50.0841 44.4727 52.8892C44.4727 55.6944 51.4245 57.9684 60 57.9684Z" stroke="#0058BF" stroke-width="3" stroke-linejoin="round"/>
<path d="M75.5273 60C75.5273 62.8037 68.5711 65.0792 60 65.0792C51.4289 65.0792 44.4727 62.8037 44.4727 60" stroke="#0058BF" stroke-width="3" stroke-linejoin="round"/>
<path d="M75.5273 52.8892V67.1108C75.5273 69.9145 68.5711 72.19 60 72.19C51.4289 72.19 44.4727 69.9145 44.4727 67.1108V52.8892" stroke="#0058BF" stroke-width="3" stroke-linejoin="round"/>
</g>
<circle cx="60" cy="60" r="58.5" stroke="#33BFC7" stroke-width="3"/>
<defs>
<clipPath id="clip0_3413_25668">
<rect width="33.125" height="38.0938" fill="white" transform="translate(43.4375 40.9531)"/>
</clipPath>
</defs>
</svg>
