<svg width="120" height="120" viewBox="0 0 120 120" fill="none" xmlns="http://www.w3.org/2000/svg">
<circle cx="60" cy="60" r="58.5" stroke="#33BFC7" stroke-width="3"/>
<path d="M99.0001 81.3185C98.9998 81.3295 98.9991 81.3405 98.9989 81.3556C98.9896 81.8744 98.6722 82.3722 98.1552 82.5731C98.0905 82.5984 98.0315 82.6189 96.1822 83.265C95.5453 83.4875 94.6962 83.7841 93.5613 84.1807C92.876 84.42 92.1251 84.0536 91.8872 83.3552C91.6498 82.6592 92.0149 81.9001 92.7023 81.6599L94.5242 81.0233L84.01 74.877L60.1581 88.8221C59.7516 89.0598 59.2498 89.0608 58.8414 88.8221L34.9892 74.877L24.475 81.0233L26.2971 81.6599C26.9845 81.9001 27.3494 82.6591 27.1122 83.3552C26.8741 84.054 26.1226 84.42 25.4381 84.1807C21.0172 82.6356 20.6962 82.5597 20.4813 82.3662C20.4544 82.3419 20.4292 82.3159 20.3978 82.2849C20.1118 82.0012 19.976 81.6111 20.0035 81.2334C20.0039 81.2271 20.0041 81.2228 20.0044 81.2184C20.0077 81.1585 20.0199 81.099 20.8409 76.116C20.9607 75.3895 21.6394 74.8993 22.3563 75.0202C23.0737 75.1415 23.5581 75.8285 23.4384 76.5548L23.0747 78.763L34.1709 72.2764C34.5574 71.9734 35.0992 71.8961 35.5929 72.1534C35.674 72.1968 53.8152 82.804 58.4639 85.5222L59.4998 86.1279L82.7057 72.5604V46.9739L60.8164 59.7792V80.4538C60.8164 81.1901 60.2269 81.7871 59.4998 81.7871C58.7727 81.7871 58.1831 81.1901 58.1831 80.4538V59.7794L36.2939 46.9741V65.3572C36.2939 66.0935 35.7043 66.6905 34.9772 66.6905C34.2501 66.6905 33.6606 66.0935 33.6606 65.3572C33.6606 44.7893 33.6182 44.4797 33.7266 44.2376C33.7344 44.22 33.7431 44.2028 33.7526 44.1783C33.8446 43.9401 34.0013 43.7425 34.1755 43.6065C34.1823 43.6012 34.1822 43.599 34.1822 43.599C34.1823 43.5844 42.3104 38.4746 48.5868 34.7544C49.4099 34.2665 50.4462 34.862 50.4462 35.8188C50.4462 36.3926 50.1489 36.9255 49.6606 37.2268L37.6094 44.664L59.4998 57.4699L81.39 44.6636L68.5015 37.1239C67.872 36.7556 67.6562 35.9401 68.0201 35.3024C68.3837 34.6651 69.1887 34.4464 69.8188 34.8149C84.6549 43.4919 84.8306 43.5725 84.9413 43.7066C84.9493 43.7163 84.957 43.7263 84.97 43.74C85.1198 43.8978 85.2358 44.0921 85.2968 44.3335C85.3011 44.3502 85.305 44.3579 85.3085 44.3657C85.3594 44.4784 85.339 44.6233 85.339 72.5747L95.9248 78.763L95.5611 76.5548C95.4413 75.8285 95.9258 75.1415 96.6431 75.0202C97.36 74.8992 98.0387 75.3897 98.1583 76.116C98.9764 81.0826 99.004 81.201 99.0001 81.3185Z" fill="#0058BF" stroke="#0058BF" stroke-width="0.5"/>
<path d="M59.4999 46.199C58.7728 46.199 58.1833 45.602 58.1833 44.8657V22.9495L56.6537 24.0761C56.0658 24.5093 55.2422 24.3776 54.8145 23.7822C54.3867 23.1867 54.5167 22.3528 55.1048 21.9197C56.0532 21.2213 56.7566 20.7027 57.2801 20.3168C58.7373 19.2425 58.7997 19.1965 58.8677 19.1619L58.877 19.1572L58.8969 19.1471C59.136 19.0224 59.4214 18.9666 59.7209 19.0182L59.7354 19.0207C59.7793 19.0282 59.8172 19.0347 59.8544 19.0436C60.0875 19.0999 60.2967 19.2551 61.8154 20.3816C62.3365 20.7682 63.0119 21.2692 63.8952 21.9197C64.4834 22.3527 64.6134 23.1867 64.1857 23.7822C63.7571 24.3786 62.9332 24.5085 62.3465 24.0761L60.8167 22.9495L60.8166 44.8657C60.8166 45.602 60.227 46.199 59.4999 46.199Z" fill="#00AFB9" stroke="#00AFB9" stroke-width="0.5"/>
</svg>
